<?xml version="1.0" encoding="utf-8"?>
<svg xmlns="http://www.w3.org/2000/svg" viewBox="0 0 512 512">
<path d="M220.984 178.813c1.585-2.654 3.534-5.174 5.347-7.675 34.391-47.444 91.207-85.56 151.068-85.441 7.946-.041 36.651 2.043 40.913 8.438 7.659 11.489 5.996 59.712 3.257 72.881-10.039 48.267-46.543 97.076-87.378 123.809l4.321 31.294c.776 5.619 1.849 11.389 2.172 17.04l-.176.321c-2.645 4.917-11.662 12.522-15.875 16.723l-30.731 30.513c-6.373 6.27-23.29 28.588-31.862 24.3-7.069-3.536-1.014-11.978.746-16.612 6.905-18.193 3.193-49.159-15.431-59.004-7.25 4.43-8.524 11.868-19.153 12.322-10.568.452-15.712-7.867-22.704-14.223-3.131 6.173-4.094 9.771-10.159 13.916-5.14 2.301-10.593 3.551-15.975 5.129-4.95 1.451-17.174 7.275-19.796-.355-1.153-3.354 2.352-24.189 3.377-28.737 2.047-9.084 8.104-13.038 16.6-16.105-17.983-17.198-20.238-23.851-1.924-41.729-17.667-16.111-35.311-27.24-60.699-18.499-4.289 1.477-8.327 4.047-12.687 5.187l-.375.096c-14.093-3.834 1.71-16.114 6.086-20.408l43.084-42.852c3.121-3.092 14.835-16.394 19.002-16.768 4.717-.424 26.177 3.27 31.601 4.086 5.739.863 11.554 2.036 17.351 2.353m149.907-81.555c-11.602 1.045-22.825 2.888-33.925 6.496 6.159 6.992 13.155 13.366 19.735 19.969l36.985 37.148c4.609 4.607 9.471 9.147 13.638 14.161 7.054-23.247 7.514-49.726 1.525-73.368-12.547-3.31-24.965-4.9-37.958-4.407m-46.423 10.996c-9.751 3.554-18.948 8.521-27.818 13.87-46.504 28.043-78.717 73.487-96.1 124.325-1.83 5.351-3.326 10.839-5.211 16.163l39.242 38.753c4.524 4.455 10.789 11.563 15.508 15.368 6.125-1.64 12.182-3.736 18.194-5.749 55.472-19.618 115.634-66.21 134.924-124.171-6.375-6.325-77.8-78.221-78.739-78.559m-149.843 75.94c-15.884 15.611-32.959 34.538-49.528 49.012 23.125-.281 30.044 1.495 49.528 13.851 3.265 3.552 7.365 6.263 10.572 9.881 7.956-26.389 14.792-42.923 28.731-66.851-9.439-2.194-29.373-5.334-39.303-5.893m13.394 87.722c-2.375 2.331-11.765 10.33-11.808 13.568-.045 3.439 33.677 35.978 38.382 40.567 3.44 3.356 9.346 12.246 14.072 10.344 4.325-3.54 7.727-8.099 12.203-11.459-3.797-5.205-8.989-9.39-13.524-13.935l-31.275-31.098c-1.743-1.711-6.418-7.114-8.05-7.987m134.983 26.08c-14.676 8.525-29.43 16.059-45.297 22.14-6.759 2.59-13.82 4.45-20.535 7.094 12.073 13.123 20.445 26.195 20.617 45.011.28 4.886.078 10.027 0 14.928 4.801-7.536 25.882-27.048 33.187-34.133 5.842-5.665 12.353-11.223 17.391-17.636-.762-4.554-4.446-36.327-5.363-37.404m-134.983 18.737c-16.225 4.078-14.293 9.493-15.986 25.749l7.512-1.975c13.171-3.76 12.073-4.154 17.285-15.571-1.55-1.828-6.703-7.72-8.811-8.203 M269.116 238.383c-.741-1.026-1.777-1.949-2.648-2.872-7.312-7.749-6.333-18.901-.083-27.108 4.802-6.305 12.745-6.726 13.349 1.018.396 5.065-6.886 7.56-6.233 13.625 1.02 9.469 17.574 22.884 27.748 9.354 10.955-14.569-11.293-20.809-13.468-36.101-1.98-13.926 9.141-23.801 22.136-25.458 7.261-.48 12.453 1.942 18.448 5.726 3.51-6.212 13.522-.299 6.773 6.703 16.365 31.351-16.219 42.114-12.136 24.847.989-3.496 4.115-4.932 4.569-9.076.745-6.803-8.406-15.503-14.592-16.157-5.337-.564-12.589 3.601-13.071 9.388-.784 9.409 18.008 16.633 16.6 34.179-1.191 14.835-14.455 25.241-29.045 24.002-5.414-.887-8.744-2.822-13.157-5.948-3.094 5.804-8.77 5.066-9.085.241-.181-2.769 2.232-4.496 3.895-6.363 M99.152 350.219c-3.532.637-6.89-.94-7.375-4.804-.653-5.207 6.642-10.933 10.059-13.949 10.678-9.423 23.207-16.251 37.522-17.871 6.137-.761 10.101 6.576 4.61 9.853-2.666 1.59-7.072 1.903-10.106 2.698-9.785 2.564-19.216 8.531-26.416 15.493-2.659 2.572-5.047 6.916-8.294 8.58 M161.921 391.743c-12.24 14.496-28.718 23.036-46.535 28.555-3.779 1.171-21.055 5.955-23.73 4.657-4.283-2.078-2.753-7.861-2.322-11.577 2.858-24.642 11.514-49.174 31.375-65.173 2.487-2.004 4.875-3.927 7.943-4.939 4.181-.158 8.364 3.963 6 8.187-1.713 3.061-6.383 5.456-9.007 7.821-15.869 14.303-20.883 32.092-24.547 52.632 19.295-3.987 39.018-12.041 52.09-27.338 1.747-2.044 3.246-4.496 5.276-6.26 3.592-3.121 15.079.075 3.457 13.435 M166.308 421.762c-4.642.769-9.537-3.781-6.505-8.38 1.558-2.363 7.332-6.759 9.766-9.293 6.776-7.059 11.748-15.377 15.072-24.563 1.515-4.186 1.62-9.362 6.071-11.48 21.812-3.237-11.073 48.07-24.404 53.716"/>
</svg>